<svg width="32" height="32" viewBox="0 0 32 32" fill="none" xmlns="http://www.w3.org/2000/svg">
<path d="M16 0C12.8355 0 9.74207 0.938383 7.11088 2.69649C4.4797 4.45459 2.42894 6.95345 1.21793 9.87706C0.00693255 12.8007 -0.309921 16.0177 0.307443 19.1214C0.924806 22.2251 2.44866 25.0761 4.6863 27.3137C6.92394 29.5513 9.77486 31.0752 12.8786 31.6926C15.9823 32.3099 19.1993 31.9931 22.1229 30.7821C25.0466 29.5711 27.5454 27.5203 29.3035 24.8891C31.0616 22.2579 32 19.1645 32 16C31.9955 11.7579 30.3084 7.69085 27.3088 4.69124C24.3091 1.69163 20.2421 0.00447972 16 0ZM16 29.5385C13.3223 29.5385 10.7048 28.7444 8.47844 27.2568C6.25205 25.7692 4.51679 23.6548 3.4921 21.1809C2.4674 18.7071 2.1993 15.985 2.72168 13.3588C3.24407 10.7326 4.53348 8.32025 6.42687 6.42686C8.32026 4.53347 10.7326 3.24406 13.3588 2.72168C15.985 2.19929 18.7071 2.4674 21.1809 3.49209C23.6548 4.51679 25.7692 6.25204 27.2568 8.47843C28.7444 10.7048 29.5385 13.3223 29.5385 16C29.5344 19.5894 28.1067 23.0306 25.5686 25.5686C23.0306 28.1067 19.5894 29.5344 16 29.5385ZM25.8462 16C25.8462 16.3264 25.7165 16.6395 25.4857 16.8703C25.2549 17.1011 24.9418 17.2308 24.6154 17.2308H16C15.6736 17.2308 15.3605 17.1011 15.1297 16.8703C14.8989 16.6395 14.7692 16.3264 14.7692 16V7.38461C14.7692 7.05819 14.8989 6.74514 15.1297 6.51433C15.3605 6.28351 15.6736 6.15384 16 6.15384C16.3264 6.15384 16.6395 6.28351 16.8703 6.51433C17.1011 6.74514 17.2308 7.05819 17.2308 7.38461V14.7692H24.6154C24.9418 14.7692 25.2549 14.8989 25.4857 15.1297C25.7165 15.3605 25.8462 15.6736 25.8462 16Z" fill="#A4D65E"/>
</svg>
