<svg width="32" height="24" viewBox="0 0 32 24" fill="none" xmlns="http://www.w3.org/2000/svg">
<path d="M30.7692 0H1.23077C0.904349 0 0.591298 0.126428 0.360484 0.351472C0.12967 0.576516 0 0.88174 0 1.2V21.6C0 22.2365 0.25934 22.847 0.720968 23.2971C1.1826 23.7471 1.8087 24 2.46154 24H29.5385C30.1913 24 30.8174 23.7471 31.279 23.2971C31.7407 22.847 32 22.2365 32 21.6V1.2C32 0.88174 31.8703 0.576516 31.6395 0.351472C31.4087 0.126428 31.0957 0 30.7692 0ZM16 12.7725L4.39538 2.4H27.6046L16 12.7725ZM11.4938 12L2.46154 20.0715V3.9285L11.4938 12ZM13.3154 13.6275L15.1615 15.285C15.3886 15.4882 15.6856 15.601 15.9938 15.601C16.3021 15.601 16.5991 15.4882 16.8262 15.285L18.6723 13.6275L27.5954 21.6H4.39538L13.3154 13.6275ZM20.5062 12L29.5385 3.927V20.073L20.5062 12Z" fill="#A4D65E"/>
</svg>
