<svg width="31" height="31" viewBox="0 0 31 31" fill="none" xmlns="http://www.w3.org/2000/svg">
<path d="M29.5076 20.8412L22.2055 17.5691L22.1853 17.5598C21.8062 17.3977 21.3927 17.3326 20.9822 17.3705C20.5716 17.4084 20.177 17.548 19.834 17.7768C19.7936 17.8035 19.7548 17.8325 19.7177 17.8636L15.945 21.0799C13.5549 19.9189 11.0872 17.4699 9.92629 15.1108L13.1472 11.2807C13.1782 11.2419 13.2077 11.2032 13.2356 11.1613C13.4594 10.8193 13.5952 10.4271 13.6309 10.0199C13.6666 9.61261 13.6011 9.20284 13.4402 8.82702V8.80842L10.1588 1.4939C9.94603 1.00296 9.58021 0.593985 9.11592 0.328039C8.65163 0.0620929 8.11378 -0.0465647 7.58267 0.0182865C5.48236 0.294665 3.55447 1.32614 2.15908 2.92006C0.763685 4.51398 -0.00378347 6.56135 1.40255e-05 8.67977C1.40255e-05 20.9869 10.0131 31 22.3202 31C24.4386 31.0038 26.4859 30.2363 28.0799 28.8409C29.6738 27.4455 30.7053 25.5176 30.9816 23.4173C31.0466 22.8864 30.9382 22.3487 30.6725 21.8844C30.4069 21.4201 29.9982 21.0542 29.5076 20.8412ZM22.3202 28.52C17.06 28.5142 12.0169 26.4221 8.29742 22.7026C4.57791 18.983 2.48578 13.94 2.48003 8.67977C2.4742 7.16616 3.01951 5.70218 4.01413 4.56124C5.00875 3.42029 6.38467 2.68039 7.88492 2.47971C7.88431 2.4859 7.88431 2.49213 7.88492 2.49831L11.1399 9.78338L7.93607 13.6181C7.90355 13.6555 7.87401 13.6954 7.84772 13.7375C7.61447 14.0954 7.47763 14.5075 7.45047 14.9339C7.42332 15.3602 7.50676 15.7864 7.69272 16.171C9.09703 19.0432 11.9909 21.9153 14.8941 23.3181C15.2815 23.5023 15.7101 23.5829 16.138 23.5519C16.5659 23.5209 16.9785 23.3795 17.3353 23.1414C17.3751 23.1146 17.4134 23.0856 17.45 23.0546L21.2181 19.8399L28.5032 23.1027C28.5032 23.1027 28.5156 23.1027 28.5202 23.1027C28.322 24.605 27.5832 25.9837 26.442 26.9808C25.3009 27.9779 23.8356 28.5251 22.3202 28.52Z" fill="#A4D65E"/>
</svg>
