<svg width="32" height="32" viewBox="0 0 32 32" fill="none" xmlns="http://www.w3.org/2000/svg">
<path d="M25.1721 18.5908L20.2485 16.1292C20.0547 16.0327 19.8389 15.9889 19.6227 16.0024C19.4066 16.0159 19.1979 16.0862 19.0176 16.2062L16.7574 17.7138C15.7199 17.1435 14.866 16.2898 14.2956 15.2523L15.8035 12.9923C15.9234 12.8121 15.9937 12.6033 16.0072 12.3873C16.0207 12.1712 15.977 11.9553 15.8804 11.7615L13.4186 6.83846C13.3166 6.63242 13.1589 6.45907 12.9633 6.33807C12.7678 6.21707 12.5423 6.15325 12.3124 6.15385C10.6801 6.15385 9.1147 6.8022 7.96052 7.95627C6.80634 9.11034 6.15793 10.6756 6.15793 12.3077C6.162 15.8971 7.58981 19.3383 10.1281 21.8763C12.6664 24.4144 16.108 25.8421 19.6977 25.8462C20.5059 25.8462 21.3062 25.687 22.0529 25.3777C22.7996 25.0685 23.478 24.6152 24.0495 24.0437C24.621 23.4723 25.0744 22.7939 25.3836 22.0473C25.6929 21.3007 25.8521 20.5004 25.8521 19.6923C25.8523 19.4637 25.7888 19.2395 25.6686 19.0449C25.5485 18.8504 25.3766 18.6931 25.1721 18.5908ZM19.6977 23.3846C16.7606 23.3814 13.9448 22.2133 11.868 20.1367C9.79115 18.06 8.62296 15.2445 8.6197 12.3077C8.61947 11.454 8.91506 10.6267 9.45619 9.96637C9.99731 9.30609 10.7505 8.85369 11.5877 8.68615L13.354 12.2246L11.8508 14.4615C11.7385 14.63 11.6694 14.8236 11.6498 15.0252C11.6302 15.2267 11.6607 15.43 11.7385 15.6169C12.6191 17.7098 14.2843 19.3748 16.3774 20.2554C16.5649 20.3366 16.7697 20.3699 16.9733 20.3521C17.177 20.3344 17.373 20.2663 17.5436 20.1538L19.7915 18.6554L23.3303 20.4215C23.1615 21.2596 22.7071 22.013 22.0446 22.5534C21.3821 23.0938 20.5526 23.3876 19.6977 23.3846ZM16.005 3.81039e-07C13.2424 -0.000602402 10.5267 0.713982 8.1222 2.0742C5.71771 3.43442 3.70638 5.39393 2.28398 7.762C0.86157 10.1301 0.0765483 12.826 0.00532042 15.5875C-0.0659074 18.3489 0.579086 21.0818 1.87752 23.52L0.131197 28.7585C-0.0134556 29.1922 -0.0344482 29.6576 0.0705727 30.1026C0.175594 30.5475 0.402477 30.9545 0.725795 31.2778C1.04911 31.6011 1.45609 31.8279 1.9011 31.9329C2.34612 32.0379 2.81159 32.0169 3.24534 31.8723L8.48431 30.1262C10.6303 31.2675 13.0081 31.9049 15.4373 31.9902C17.8665 32.0754 20.2832 31.6061 22.5039 30.618C24.7246 29.6299 26.6911 28.149 28.2539 26.2875C29.8168 24.4261 30.935 22.2331 31.5236 19.875C32.1123 17.5169 32.156 15.0557 31.6513 12.6782C31.1467 10.3007 30.107 8.06944 28.6112 6.15372C27.1154 4.23799 25.2028 2.68819 23.0185 1.62193C20.8342 0.555675 18.4357 0.000997277 16.005 3.81039e-07ZM16.005 29.5385C13.6248 29.5401 11.2863 28.9133 9.22592 27.7215C9.07506 27.6341 8.90734 27.5796 8.73387 27.5619C8.56039 27.5441 8.38512 27.5634 8.21967 27.6185L2.46527 29.5385L4.38391 23.7846C4.43922 23.6193 4.45877 23.4441 4.44126 23.2706C4.42375 23.0972 4.36959 22.9294 4.28237 22.7785C2.78987 20.1983 2.19064 17.1978 2.57763 14.2424C2.96462 11.287 4.3162 8.54187 6.42271 6.43291C8.52921 4.32395 11.2729 2.96903 14.2281 2.57834C17.1833 2.18766 20.1848 2.78304 22.7671 4.27213C25.3494 5.76122 27.368 8.06078 28.5099 10.8141C29.6517 13.5674 29.8529 16.6205 29.0823 19.4998C28.3117 22.3792 26.6124 24.9237 24.2479 26.7388C21.8834 28.5539 18.986 29.538 16.005 29.5385Z" fill="#A4D65E"/>
</svg>
